<!-- 由 npm run brand:gen 生成，改 src/lib/brand/sigil.ts 后重跑 -->
<svg xmlns="http://www.w3.org/2000/svg" width="1200" height="630" viewBox="0 0 1200 630" shape-rendering="crispEdges"><rect width="1200" height="630" fill="#0e1017"/><rect x="24" y="24" width="1152" height="582" fill="none" stroke="#d9a441" stroke-width="2"/><rect x="492" y="168" width="216" height="18" fill="#d9a441"/><rect x="474" y="186" width="36" height="18" fill="#d9a441"/><rect x="510" y="186" width="180" height="18" fill="#1b1f2a"/><rect x="690" y="186" width="36" height="18" fill="#d9a441"/><rect x="474" y="204" width="18" height="18" fill="#d9a441"/><rect x="492" y="204" width="216" height="18" fill="#1b1f2a"/><rect x="708" y="204" width="18" height="18" fill="#d9a441"/><rect x="474" y="222" width="18" height="18" fill="#d9a441"/><rect x="492" y="222" width="18" height="18" fill="#1b1f2a"/><rect x="510" y="222" width="180" height="18" fill="#d9a441"/><rect x="690" y="222" width="18" height="18" fill="#1b1f2a"/><rect x="708" y="222" width="18" height="18" fill="#d9a441"/><rect x="474" y="240" width="18" height="18" fill="#d9a441"/><rect x="492" y="240" width="18" height="18" fill="#1b1f2a"/><rect x="510" y="240" width="18" height="18" fill="#d9a441"/><rect x="528" y="240" width="54" height="18" fill="#efe6d0"/><rect x="582" y="240" width="36" height="18" fill="#d9a441"/><rect x="618" y="240" width="54" height="18" fill="#efe6d0"/><rect x="672" y="240" width="18" height="18" fill="#d9a441"/><rect x="690" y="240" width="18" height="18" fill="#1b1f2a"/><rect x="708" y="240" width="18" height="18" fill="#d9a441"/><rect x="474" y="258" width="18" height="18" fill="#d9a441"/><rect x="492" y="258" width="18" height="18" fill="#1b1f2a"/><rect x="510" y="258" width="18" height="18" fill="#d9a441"/><rect x="528" y="258" width="54" height="18" fill="#efe6d0"/><rect x="582" y="258" width="36" height="18" fill="#d9a441"/><rect x="618" y="258" width="54" height="18" fill="#efe6d0"/><rect x="672" y="258" width="18" height="18" fill="#d9a441"/><rect x="690" y="258" width="18" height="18" fill="#1b1f2a"/><rect x="708" y="258" width="18" height="18" fill="#d9a441"/><rect x="474" y="276" width="18" height="18" fill="#d9a441"/><rect x="492" y="276" width="18" height="18" fill="#1b1f2a"/><rect x="510" y="276" width="18" height="18" fill="#d9a441"/><rect x="528" y="276" width="54" height="18" fill="#efe6d0"/><rect x="582" y="276" width="36" height="18" fill="#d9a441"/><rect x="618" y="276" width="54" height="18" fill="#efe6d0"/><rect x="672" y="276" width="18" height="18" fill="#d9a441"/><rect x="690" y="276" width="18" height="18" fill="#1b1f2a"/><rect x="708" y="276" width="18" height="18" fill="#d9a441"/><rect x="474" y="294" width="18" height="18" fill="#d9a441"/><rect x="492" y="294" width="18" height="18" fill="#1b1f2a"/><rect x="510" y="294" width="180" height="18" fill="#d9a441"/><rect x="690" y="294" width="18" height="18" fill="#1b1f2a"/><rect x="708" y="294" width="18" height="18" fill="#d9a441"/><rect x="474" y="312" width="18" height="18" fill="#d9a441"/><rect x="492" y="312" width="216" height="18" fill="#1b1f2a"/><rect x="708" y="312" width="18" height="18" fill="#d9a441"/><rect x="474" y="330" width="36" height="18" fill="#d9a441"/><rect x="510" y="330" width="180" height="18" fill="#1b1f2a"/><rect x="690" y="330" width="36" height="18" fill="#d9a441"/><rect x="492" y="348" width="18" height="18" fill="#d9a441"/><rect x="510" y="348" width="180" height="18" fill="#1b1f2a"/><rect x="690" y="348" width="18" height="18" fill="#d9a441"/><rect x="510" y="366" width="18" height="18" fill="#d9a441"/><rect x="528" y="366" width="144" height="18" fill="#1b1f2a"/><rect x="672" y="366" width="18" height="18" fill="#d9a441"/><rect x="528" y="384" width="18" height="18" fill="#d9a441"/><rect x="546" y="384" width="108" height="18" fill="#1b1f2a"/><rect x="654" y="384" width="18" height="18" fill="#d9a441"/><rect x="546" y="402" width="18" height="18" fill="#d9a441"/><rect x="564" y="402" width="72" height="18" fill="#1b1f2a"/><rect x="636" y="402" width="18" height="18" fill="#d9a441"/><rect x="564" y="420" width="72" height="18" fill="#d9a441"/><text x="600" y="512" text-anchor="middle" fill="#efe6d0" font-family="Georgia, serif" font-size="64" font-weight="700">学者公会</text><text x="600" y="560" text-anchor="middle" fill="#d9a441" font-family="monospace" font-size="24" letter-spacing="6">ACADEMIC ADVENTURE</text></svg>
